# xmcd
#
# Track frame offsets:
#	150
#	17265
#	35510
#	57217
#	79995
#	95857
#	117865
#	136575
#	157187
#	174067
#	195687
#
# Disc length: 2794 seconds
#
# Revision: 1
# Processed by: cddbd v1.5.2PL0 Copyright (c) Steve Scherf et al.
# Submitted via: audiograbber 1.83.01
#
DISCID=850ae80b
DTITLE=Márcio Faraco - Interior
DYEAR=2002
DGENRE=Samba
TTITLE0=Efêmera
TTITLE1=O Destino Espera
TTITLE2=O Céu E O Mar
TTITLE3=Sumidouro
TTITLE4=Nosso Amor De Tanto Tempo
TTITLE5=Sarapatel Humano
TTITLE6=Saudade Quando Dá
TTITLE7=O Sobrevivente
TTITLE8=Um Dia Eu Vou
TTITLE9=Pão Com Pão
TTITLE10=O Outro Lado
EXTD=
EXTT0=
EXTT1=
EXTT2=
EXTT3=
EXTT4=
EXTT5=
EXTT6=
EXTT7=
EXTT8=
EXTT9=
EXTT10=
PLAYORDER=
